<?xml version="1.0" encoding="iso-8859-1"?>
<!-- Generator: Adobe Illustrator 17.0.0, SVG Export Plug-In . SVG Version: 6.00 Build 0)  -->
<!DOCTYPE svg PUBLIC "-//W3C//DTD SVG 1.1//EN" "http://www.w3.org/Graphics/SVG/1.1/DTD/svg11.dtd">
<svg version="1.1" id="Calque_1" xmlns="http://www.w3.org/2000/svg" xmlns:xlink="http://www.w3.org/1999/xlink" x="0px" y="0px"
	 width="56.851px" height="122.646px" viewBox="0 0 56.851 122.646" style="enable-background:new 0 0 56.851 122.646;"
	 xml:space="preserve">
<g>
	<polyline style="fill:#F29F60;" points="22.692,85.737 23.428,115.409 24.931,110.198 27.207,121.833 28.646,109.272 
		30.498,122.646 32.539,107.029 33.591,113.055 33.746,85.804 22.886,85.797 	"/>
	<polyline style="fill:#FCD3B2;" points="24.549,85.122 25.019,104.035 25.973,100.713 27.427,108.127 28.343,100.123 
		29.523,108.644 30.825,98.694 31.494,102.534 31.592,85.166 24.675,85.162 	"/>
	<path style="fill:#AEB0B1;" d="M34.82,85.262c-0.001,0.531-0.436,0.964-0.97,0.963l-11.115-0.04
		c-0.533-0.004-0.966-0.438-0.962-0.973l0,0c0-0.532,0.435-0.963,0.969-0.963l11.116,0.041
		C34.392,84.293,34.822,84.725,34.82,85.262L34.82,85.262z"/>
	<path style="fill:#F29F60;" d="M39.517,56.671l17.335,17.613l-0.064,17.339c0,0-4.777-15.061-17.342-15.107L39.517,56.671z"/>
	<path style="fill:#F29F60;" d="M17.525,56.592L0.062,74.078L0,91.416c0,0,4.888-15.022,17.454-14.978L17.525,56.592z"/>
	<path style="fill:#FFFFFF;" d="M28.736,15.441c0,0-17.414,6.5-17.477,23.858c-0.064,17.358,8.539,45.664,8.539,45.664l17.44,0.064
		c0,0,8.833-28.241,8.896-45.642C46.197,21.988,28.736,15.441,28.736,15.441z"/>
	<path style="fill:#F29F60;" d="M11.259,39.3c0.062-17.358,17.477-23.858,17.477-23.858s17.461,6.547,17.398,23.944L11.259,39.3z"/>
	<path style="fill:#75797A;" d="M25.544,16.985l6.397,0.013L29.63,15.75L29.164,2.166c0.367-0.192,0.619-0.578,0.616-1.019
		C29.776,0.51,29.26-0.001,28.626,0c-0.634,0.005-1.146,0.521-1.143,1.155c0.001,0.494,0.316,0.911,0.753,1.073l-0.343,13.494
		L25.544,16.985z"/>
	<path style="opacity:0.8;fill:#C2C3C3;" d="M39.664,76.519c0,0,3.449,0.026,6.397,1.582c1.133-4.598,2.67-12.067,2.67-12.067
		l-5.261-5.346C43.47,60.688,40.409,74.758,39.664,76.519"/>
	<path style="opacity:0.3;fill:#C9CAC9;" d="M46.074,39.448c0.312-14.864-12.743-21.898-16.515-23.62l0,0L29.164,2.166l0.571-0.695
		c0,0,0.32-1.049-0.93-1.455c0.923,0.691-0.205,1.85-0.205,1.85L28.55,15.399l-0.122,33.59c0,0,8.457,0.113,8.425,8.832
		c-0.025,7.15-8.409,7.721-8.409,7.721l0.085,19.453l8.708,0.033C37.239,85.027,46.469,55.158,46.074,39.448z"/>
	<path style="fill:#66A9D1;stroke:#C2C3C3;stroke-miterlimit:10;" d="M36.436,57.255c0.019,4.294-3.447,7.796-7.745,7.815
		c-4.298,0.021-7.796-3.447-7.814-7.744c-0.022-4.297,3.446-7.796,7.744-7.815C32.917,49.491,36.416,52.954,36.436,57.255z"/>
	<path style="fill:#FFFFFF;" d="M30.007,51.547c2.663,0.574,4.18,3.194,4.362,5.74c0.047,0.658-0.971,0.713-1.017,0.058
		c-0.153-2.088-1.347-4.322-3.56-4.799C29.15,52.409,29.362,51.408,30.007,51.547L30.007,51.547z"/>
	<path style="opacity:0.1;fill:#75716F;" d="M25.416,50.882l6.145,12.95c0,0-2.634,1.29-5.469,0.176
		c-2.835-1.113-3.793-3.335-4.139-4.139c-0.343-0.803-1.014-3.252,0.384-6.008C23.54,51.691,25.416,50.882,25.416,50.882z"/>
</g>
</svg>
